<svg width="400" xmlns="http://www.w3.org/2000/svg" height="125.714" id="screenshot-993fe4cb-279d-80e0-8008-769a7b1374b8" viewBox="0 0 400 125.714" xmlns:xlink="http://www.w3.org/1999/xlink" fill="none" version="1.1"><g id="shape-993fe4cb-279d-80e0-8008-769a7b1374b8" rx="0" ry="0"><g id="shape-993fe4cb-279d-80e0-8008-769a7a62c77d"><g class="fills" id="fills-993fe4cb-279d-80e0-8008-769a7a62c77d"><rect rx="6.857142857142833" ry="6.857142857142833" x="0" y="56" transform="matrix(1.000000, 0.000000, 0.000000, 1.000000, 0.000000, 0.000000)" width="34.28571428571428" height="13.714285714285666" style="fill: rgb(136, 192, 208); fill-opacity: 1;"/></g></g><g id="shape-993fe4cb-279d-80e0-8008-769a7a89c956"><g class="fills" id="fills-993fe4cb-279d-80e0-8008-769a7a89c956"><rect rx="15" ry="15" x="45.71428571428572" y="45.714285714285666" transform="matrix(1.000000, 0.000000, 0.000000, 1.000000, 0.000000, 0.000000)" width="34.28571428571428" height="34.285714285714334" style="fill: rgb(136, 192, 208); fill-opacity: 1;"/></g></g><g id="shape-993fe4cb-279d-80e0-8008-769a7a9fe4f2"><g class="fills" id="fills-993fe4cb-279d-80e0-8008-769a7a9fe4f2"><rect rx="15" ry="15" x="91.42857142857144" y="33.14285714285711" transform="matrix(1.000000, 0.000000, 0.000000, 1.000000, 0.000000, 0.000000)" width="34.28571428571428" height="59.428571428571445" style="fill: rgb(136, 192, 208); fill-opacity: 1;"/></g></g><g id="shape-993fe4cb-279d-80e0-8008-769a7ab46172"><g class="fills" id="fills-993fe4cb-279d-80e0-8008-769a7ab46172"><rect rx="15" ry="15" x="137.1428571428571" y="18.285714285714306" transform="matrix(1.000000, 0.000000, 0.000000, 1.000000, 0.000000, 0.000000)" width="34.285714285714334" height="89.14285714285714" style="fill: rgb(136, 192, 208); fill-opacity: 1;"/></g></g><g id="shape-993fe4cb-279d-80e0-8008-769a7ac82b71"><g class="fills" id="fills-993fe4cb-279d-80e0-8008-769a7ac82b71"><rect rx="15" ry="15" x="182.85714285714283" y="0" transform="matrix(1.000000, 0.000000, 0.000000, 1.000000, 0.000000, 0.000000)" width="34.285714285714334" height="125.71428571428578" style="fill: rgb(136, 192, 208); fill-opacity: 1;"/></g></g><g id="shape-993fe4cb-279d-80e0-8008-769a7ad6c7b7"><g class="fills" id="fills-993fe4cb-279d-80e0-8008-769a7ad6c7b7"><rect rx="15" ry="15" x="228.57142857142856" y="18.285714285714306" transform="matrix(1.000000, 0.000000, 0.000000, 1.000000, 0.000000, 0.000000)" width="34.28571428571428" height="89.14285714285714" style="fill: rgb(136, 192, 208); fill-opacity: 1;"/></g></g><g id="shape-993fe4cb-279d-80e0-8008-769a7aea70cd"><g class="fills" id="fills-993fe4cb-279d-80e0-8008-769a7aea70cd"><rect rx="15" ry="15" x="274.28571428571433" y="33.14285714285711" transform="matrix(1.000000, 0.000000, 0.000000, 1.000000, 0.000000, 0.000000)" width="34.28571428571428" height="59.428571428571445" style="fill: rgb(136, 192, 208); fill-opacity: 1;"/></g></g><g id="shape-993fe4cb-279d-80e0-8008-769a7af77904"><g class="fills" id="fills-993fe4cb-279d-80e0-8008-769a7af77904"><rect rx="15" ry="15" x="320" y="45.714285714285666" transform="matrix(1.000000, 0.000000, 0.000000, 1.000000, 0.000000, 0.000000)" width="34.28571428571428" height="34.285714285714334" style="fill: rgb(59, 66, 82); fill-opacity: 1;"/></g></g><g id="shape-993fe4cb-279d-80e0-8008-769a7b04705e"><g class="fills" id="fills-993fe4cb-279d-80e0-8008-769a7b04705e"><rect rx="6.857142857142833" ry="6.857142857142833" x="365.7142857142858" y="56" transform="matrix(1.000000, 0.000000, 0.000000, 1.000000, 0.000000, 0.000000)" width="34.28571428571428" height="13.714285714285666" style="fill: rgb(59, 66, 82); fill-opacity: 1;"/></g></g></g></svg>