<svg width="512" xmlns="http://www.w3.org/2000/svg" height="512" id="screenshot-993fe4cb-279d-80e0-8008-7695f363f542" viewBox="0 0 512 512" xmlns:xlink="http://www.w3.org/1999/xlink" fill="none" version="1.1"><g id="shape-993fe4cb-279d-80e0-8008-7695f363f542"><defs><clipPath id="frame-clip-993fe4cb-279d-80e0-8008-7695f363f542-render-1" class="frame-clip frame-clip-def"><rect rx="0" ry="0" x="0" y="0" width="512" height="512" transform="matrix(1.000000, 0.000000, 0.000000, 1.000000, 0.000000, 0.000000)"/></clipPath></defs><g class="frame-container-wrapper"><g class="frame-container-blur"><g class="frame-container-shadows"><g clip-path="url(#frame-clip-993fe4cb-279d-80e0-8008-7695f363f542-render-1)" fill="none"><g class="fills" id="fills-993fe4cb-279d-80e0-8008-7695f363f542"><rect width="512" height="512" class="frame-background" x="0" transform="matrix(1.000000, 0.000000, 0.000000, 1.000000, 0.000000, 0.000000)" style="fill: rgb(255, 255, 255); fill-opacity: 0;" ry="0" rx="0" y="0"/></g><g class="frame-children"><g id="shape-993fe4cb-279d-80e0-8008-7695f3c2f9d6"><g class="fills" id="fills-993fe4cb-279d-80e0-8008-7695f3c2f9d6"><rect rx="100" ry="100" x="0" y="0" transform="matrix(1.000000, 0.000000, 0.000000, 1.000000, 0.000000, 0.000000)" width="512" height="512" style="fill: rgb(46, 52, 64); fill-opacity: 1;"/></g></g><g id="shape-993fe4cb-279d-80e0-8008-76a1e45d35f1"><g class="fills" id="fills-993fe4cb-279d-80e0-8008-76a1e45d35f1"><rect rx="10" ry="10" x="376" y="128" transform="matrix(1.000000, 0.000000, 0.000000, 1.000000, 0.000000, 0.000000)" width="80" height="256" style="fill: rgb(136, 192, 208); fill-opacity: 1;"/></g></g><g id="shape-993fe4cb-279d-80e0-8008-769a7b1374b8" rx="0" ry="0"><g id="shape-993fe4cb-279d-80e0-8008-769a7a62c77d"><g class="fills" id="fills-993fe4cb-279d-80e0-8008-769a7a62c77d"><rect rx="6.857142857142833" ry="6.857142857142833" x="56" y="252" transform="matrix(1.000000, 0.000000, 0.000000, 1.000000, 0.000000, 0.000000)" width="34.28571428571428" height="13.714285714285666" style="fill: rgb(136, 192, 208); fill-opacity: 1;"/></g></g><g id="shape-993fe4cb-279d-80e0-8008-769a7a89c956"><g class="fills" id="fills-993fe4cb-279d-80e0-8008-769a7a89c956"><rect rx="15" ry="15" x="101.71428571428572" y="241.71428571428567" transform="matrix(1.000000, 0.000000, 0.000000, 1.000000, 0.000000, 0.000000)" width="34.28571428571428" height="34.285714285714334" style="fill: rgb(136, 192, 208); fill-opacity: 1;"/></g></g><g id="shape-993fe4cb-279d-80e0-8008-769a7a9fe4f2"><g class="fills" id="fills-993fe4cb-279d-80e0-8008-769a7a9fe4f2"><rect rx="15" ry="15" x="147.42857142857144" y="229.1428571428571" transform="matrix(1.000000, 0.000000, 0.000000, 1.000000, 0.000000, 0.000000)" width="34.28571428571428" height="59.428571428571445" style="fill: rgb(136, 192, 208); fill-opacity: 1;"/></g></g><g id="shape-993fe4cb-279d-80e0-8008-769a7ab46172"><g class="fills" id="fills-993fe4cb-279d-80e0-8008-769a7ab46172"><rect rx="15" ry="15" x="193.1428571428571" y="214.2857142857143" transform="matrix(1.000000, 0.000000, 0.000000, 1.000000, 0.000000, 0.000000)" width="34.285714285714334" height="89.14285714285714" style="fill: rgb(136, 192, 208); fill-opacity: 1;"/></g></g><g id="shape-993fe4cb-279d-80e0-8008-769a7ac82b71"><g class="fills" id="fills-993fe4cb-279d-80e0-8008-769a7ac82b71"><rect rx="15" ry="15" x="238.85714285714283" y="196" transform="matrix(1.000000, 0.000000, 0.000000, 1.000000, 0.000000, 0.000000)" width="34.285714285714334" height="125.71428571428578" style="fill: rgb(136, 192, 208); fill-opacity: 1;"/></g></g><g id="shape-993fe4cb-279d-80e0-8008-769a7ad6c7b7"><g class="fills" id="fills-993fe4cb-279d-80e0-8008-769a7ad6c7b7"><rect rx="15" ry="15" x="284.57142857142856" y="214.2857142857143" transform="matrix(1.000000, 0.000000, 0.000000, 1.000000, 0.000000, 0.000000)" width="34.28571428571428" height="89.14285714285714" style="fill: rgb(136, 192, 208); fill-opacity: 1;"/></g></g><g id="shape-993fe4cb-279d-80e0-8008-769a7aea70cd"><g class="fills" id="fills-993fe4cb-279d-80e0-8008-769a7aea70cd"><rect rx="15" ry="15" x="330.28571428571433" y="229.1428571428571" transform="matrix(1.000000, 0.000000, 0.000000, 1.000000, 0.000000, 0.000000)" width="34.28571428571428" height="59.428571428571445" style="fill: rgb(136, 192, 208); fill-opacity: 1;"/></g></g><g id="shape-993fe4cb-279d-80e0-8008-769a7af77904"><g class="fills" id="fills-993fe4cb-279d-80e0-8008-769a7af77904"><rect rx="15" ry="15" x="376" y="241.71428571428567" transform="matrix(1.000000, 0.000000, 0.000000, 1.000000, 0.000000, 0.000000)" width="34.28571428571428" height="34.285714285714334" style="fill: rgb(59, 66, 82); fill-opacity: 1;"/></g></g><g id="shape-993fe4cb-279d-80e0-8008-769a7b04705e"><g class="fills" id="fills-993fe4cb-279d-80e0-8008-769a7b04705e"><rect rx="6.857142857142833" ry="6.857142857142833" x="421.7142857142858" y="252" transform="matrix(1.000000, 0.000000, 0.000000, 1.000000, 0.000000, 0.000000)" width="34.28571428571428" height="13.714285714285666" style="fill: rgb(59, 66, 82); fill-opacity: 1;"/></g></g></g></g></g></g></g></g></g></svg>